<svg width="332" height="177" viewBox="0 0 332 177" fill="none" xmlns="http://www.w3.org/2000/svg">
<g filter="url(#filter0_d)">
<path d="M13.68 135C12.72 135 11.856 134.664 11.088 133.992C10.416 133.224 10.08 132.36 10.08 131.4V37.8C10.08 36.744 10.416 35.88 11.088 35.208C11.856 34.536 12.72 34.2 13.68 34.2H29.232C31.536 34.2 33.216 35.256 34.272 37.368L59.616 82.728L84.96 37.368C86.016 35.256 87.696 34.2 90 34.2H105.408C106.464 34.2 107.328 34.536 108 35.208C108.768 35.88 109.152 36.744 109.152 37.8V131.4C109.152 132.456 108.768 133.32 108 133.992C107.328 134.664 106.464 135 105.408 135H88.272C87.216 135 86.304 134.664 85.536 133.992C84.864 133.32 84.528 132.456 84.528 131.4V77.4L68.4 107.496C67.152 109.704 65.472 110.808 63.36 110.808H55.872C54.624 110.808 53.616 110.52 52.848 109.944C52.08 109.368 51.408 108.552 50.832 107.496L34.56 77.4V131.4C34.56 132.36 34.224 133.224 33.552 133.992C32.88 134.664 32.016 135 30.96 135H13.68ZM132.93 135C131.97 135 131.106 134.664 130.338 133.992C129.666 133.224 129.33 132.36 129.33 131.4V37.8C129.33 36.744 129.666 35.88 130.338 35.208C131.106 34.536 131.97 34.2 132.93 34.2H148.194C150.594 34.2 152.226 35.112 153.09 36.936L188.226 92.232V37.8C188.226 36.744 188.562 35.88 189.234 35.208C190.002 34.536 190.866 34.2 191.826 34.2H209.106C210.162 34.2 211.026 34.536 211.698 35.208C212.37 35.88 212.706 36.744 212.706 37.8V131.256C212.706 132.312 212.37 133.224 211.698 133.992C211.026 134.664 210.162 135 209.106 135H193.698C191.586 135 190.002 134.088 188.946 132.264L153.81 78.984V131.4C153.81 132.36 153.474 133.224 152.802 133.992C152.13 134.664 151.266 135 150.21 135H132.93ZM236.43 135C235.47 135 234.606 134.664 233.838 133.992C233.166 133.224 232.83 132.36 232.83 131.4V37.8C232.83 36.744 233.166 35.88 233.838 35.208C234.606 34.536 235.47 34.2 236.43 34.2H251.694C254.094 34.2 255.726 35.112 256.59 36.936L291.726 92.232V37.8C291.726 36.744 292.062 35.88 292.734 35.208C293.502 34.536 294.366 34.2 295.326 34.2H312.606C313.662 34.2 314.526 34.536 315.198 35.208C315.87 35.88 316.206 36.744 316.206 37.8V131.256C316.206 132.312 315.87 133.224 315.198 133.992C314.526 134.664 313.662 135 312.606 135H297.198C295.086 135 293.502 134.088 292.446 132.264L257.31 78.984V131.4C257.31 132.36 256.974 133.224 256.302 133.992C255.63 134.664 254.766 135 253.71 135H236.43Z" fill="#1A1A1A"/>
</g>
<g filter="url(#filter1_d)">
<path d="M14.041 168.639C13.7634 168.639 13.5135 168.555 13.2915 168.386C13.0972 168.194 13 167.977 13 167.736V144.264C13 143.999 13.0972 143.782 13.2915 143.614C13.5135 143.445 13.7634 143.361 14.041 143.361H18.5379C19.2041 143.361 19.6899 143.626 19.9953 144.156L27.3236 155.531L34.652 144.156C34.9574 143.626 35.4432 143.361 36.1094 143.361H40.5647C40.87 143.361 41.1199 143.445 41.3142 143.614C41.5363 143.782 41.6473 143.999 41.6473 144.264V167.736C41.6473 168.001 41.5363 168.218 41.3142 168.386C41.1199 168.555 40.87 168.639 40.5647 168.639H35.6097C35.3044 168.639 35.0406 168.555 34.8186 168.386C34.6243 168.218 34.5271 168.001 34.5271 167.736V154.194L29.8636 161.742C29.5027 162.295 29.0169 162.572 28.4062 162.572H26.241C25.8802 162.572 25.5887 162.5 25.3666 162.356C25.1446 162.211 24.9503 162.006 24.7837 161.742L20.0785 154.194V167.736C20.0785 167.977 19.9814 168.194 19.7871 168.386C19.5928 168.555 19.3429 168.639 19.0376 168.639H14.041Z" fill="#1A1A1A"/>
<path d="M48.5228 168.639C48.2453 168.639 47.9954 168.555 47.7734 168.386C47.579 168.194 47.4819 167.977 47.4819 167.736V144.264C47.4819 143.999 47.579 143.782 47.7734 143.614C47.9954 143.445 48.2453 143.361 48.5228 143.361H67.968C68.2734 143.361 68.5232 143.445 68.7175 143.614C68.9118 143.782 69.009 143.999 69.009 144.264V147.658C69.009 147.899 68.9118 148.116 68.7175 148.308C68.5232 148.477 68.2734 148.561 67.968 148.561H54.6853V153.436H67.052C67.3573 153.436 67.6072 153.532 67.8015 153.725C67.9958 153.894 68.0929 154.11 68.0929 154.375V157.517C68.0929 157.757 67.9958 157.974 67.8015 158.167C67.6072 158.335 67.3573 158.419 67.052 158.419H54.6853V163.439H68.3011C68.6065 163.439 68.8563 163.523 69.0506 163.692C69.2449 163.86 69.3421 164.077 69.3421 164.342V167.736C69.3421 167.977 69.2449 168.194 69.0506 168.386C68.8563 168.555 68.6065 168.639 68.3011 168.639H48.5228Z" fill="#1A1A1A"/>
<path d="M75.1162 168.639C74.8386 168.639 74.5888 168.555 74.3667 168.386C74.1724 168.194 74.0752 167.977 74.0752 167.736V144.264C74.0752 143.999 74.1724 143.782 74.3667 143.614C74.5888 143.445 74.8386 143.361 75.1162 143.361H85.9422C90.0228 143.361 93.1873 144.204 95.4358 145.889C97.6843 147.574 98.864 150.018 98.975 153.219C99.0028 153.918 99.0167 154.844 99.0167 156C99.0167 157.156 99.0028 158.07 98.975 158.744C98.8363 162.091 97.6843 164.582 95.5191 166.219C93.3816 167.832 90.2587 168.639 86.1504 168.639H75.1162ZM85.9422 163.439C87.7743 163.439 89.1206 163.066 89.9811 162.319C90.8417 161.549 91.2997 160.333 91.3552 158.672C91.4107 157.974 91.4385 157.071 91.4385 155.964C91.4385 154.856 91.4107 153.966 91.3552 153.292C91.2997 151.679 90.8 150.487 89.8562 149.717C88.9402 148.946 87.5661 148.561 85.734 148.561H81.5702V163.439H85.9422Z" fill="#1A1A1A"/>
<path d="M104.922 168.639C104.644 168.639 104.394 168.555 104.172 168.386C103.978 168.194 103.881 167.977 103.881 167.736V144.264C103.881 143.999 103.978 143.782 104.172 143.614C104.394 143.445 104.644 143.361 104.922 143.361H110.501C110.807 143.361 111.057 143.445 111.251 143.614C111.473 143.782 111.584 143.999 111.584 144.264V167.736C111.584 168.001 111.473 168.218 111.251 168.386C111.057 168.555 110.807 168.639 110.501 168.639H104.922Z" fill="#1A1A1A"/>
<path d="M115.715 168.639C115.493 168.639 115.285 168.567 115.091 168.422C114.924 168.254 114.841 168.073 114.841 167.881C114.841 167.736 114.855 167.628 114.883 167.556L124.668 144.372C124.751 144.083 124.931 143.843 125.209 143.65C125.487 143.457 125.847 143.361 126.292 143.361H132.454C132.898 143.361 133.259 143.457 133.537 143.65C133.814 143.843 133.995 144.083 134.078 144.372L143.821 167.556L143.905 167.881C143.905 168.073 143.807 168.254 143.613 168.422C143.447 168.567 143.238 168.639 142.989 168.639H137.867C137.201 168.639 136.757 168.386 136.535 167.881L134.911 164.197H123.793L122.211 167.881C121.989 168.386 121.531 168.639 120.837 168.639H115.715ZM133.245 158.997L129.373 149.464L125.5 158.997H133.245Z" fill="#1A1A1A"/>
<path d="M148.228 168.639C147.95 168.639 147.7 168.555 147.478 168.386C147.284 168.194 147.187 167.977 147.187 167.736V144.264C147.187 143.999 147.284 143.782 147.478 143.614C147.7 143.445 147.95 143.361 148.228 143.361H152.641C153.335 143.361 153.807 143.59 154.057 144.047L164.217 157.914V144.264C164.217 143.999 164.314 143.782 164.508 143.614C164.73 143.445 164.98 143.361 165.258 143.361H170.254C170.56 143.361 170.809 143.445 171.004 143.614C171.198 143.782 171.295 143.999 171.295 144.264V167.7C171.295 167.965 171.198 168.194 171.004 168.386C170.809 168.555 170.56 168.639 170.254 168.639H165.799C165.188 168.639 164.73 168.41 164.425 167.953L154.265 154.592V167.736C154.265 167.977 154.168 168.194 153.974 168.386C153.779 168.555 153.53 168.639 153.224 168.639H148.228Z" fill="#1A1A1A"/>
<path d="M189.023 169C185.109 169 182.028 168.169 179.779 166.508C177.531 164.847 176.337 162.404 176.198 159.178C176.17 158.48 176.157 157.444 176.157 156.072C176.157 154.676 176.17 153.629 176.198 152.931C176.337 149.753 177.545 147.309 179.821 145.6C182.125 143.867 185.192 143 189.023 143C192.854 143 195.921 143.867 198.225 145.6C200.529 147.309 201.736 149.753 201.848 152.931C201.903 154.327 201.931 155.374 201.931 156.072C201.931 156.746 201.903 157.781 201.848 159.178C201.709 162.404 200.515 164.847 198.267 166.508C196.018 168.169 192.937 169 189.023 169ZM189.023 163.8C190.55 163.8 191.757 163.403 192.645 162.608C193.561 161.814 194.047 160.598 194.103 158.961C194.158 157.565 194.186 156.578 194.186 156C194.186 155.374 194.158 154.387 194.103 153.039C194.047 151.402 193.561 150.186 192.645 149.392C191.729 148.597 190.522 148.2 189.023 148.2C187.524 148.2 186.316 148.597 185.4 149.392C184.512 150.186 184.026 151.402 183.943 153.039C183.915 153.713 183.901 154.7 183.901 156C183.901 157.276 183.915 158.263 183.943 158.961C184.026 160.598 184.512 161.814 185.4 162.608C186.289 163.403 187.496 163.8 189.023 163.8Z" fill="#1A1A1A"/>
<path d="M211.095 168.639C210.624 168.639 210.249 168.531 209.971 168.314C209.694 168.073 209.527 167.784 209.472 167.447L204.933 144.372C204.905 144.3 204.891 144.216 204.891 144.119C204.891 143.927 204.975 143.758 205.141 143.614C205.336 143.445 205.544 143.361 205.766 143.361H210.929C211.706 143.361 212.136 143.626 212.22 144.156L214.926 158.239L217.924 149.933C218.23 149.283 218.688 148.958 219.298 148.958H222.296C222.99 148.958 223.448 149.283 223.67 149.933L226.668 158.239L229.375 144.156C229.458 143.626 229.888 143.361 230.666 143.361H235.829C236.079 143.361 236.287 143.445 236.453 143.614C236.648 143.758 236.745 143.927 236.745 144.119L236.703 144.372L232.165 167.447C232.109 167.784 231.929 168.073 231.623 168.314C231.346 168.531 230.985 168.639 230.541 168.639H226.585C226.141 168.639 225.794 168.543 225.544 168.35C225.294 168.157 225.114 167.941 225.003 167.7L220.797 157.372L216.592 167.7C216.342 168.326 215.828 168.639 215.051 168.639H211.095Z" fill="#1A1A1A"/>
<path d="M242.077 168.639C241.799 168.639 241.549 168.555 241.327 168.386C241.133 168.194 241.036 167.977 241.036 167.736V144.264C241.036 143.999 241.133 143.782 241.327 143.614C241.549 143.445 241.799 143.361 242.077 143.361H246.491C247.184 143.361 247.656 143.59 247.906 144.047L258.066 157.914V144.264C258.066 143.999 258.163 143.782 258.357 143.614C258.58 143.445 258.829 143.361 259.107 143.361H264.104C264.409 143.361 264.659 143.445 264.853 143.614C265.047 143.782 265.145 143.999 265.145 144.264V167.7C265.145 167.965 265.047 168.194 264.853 168.386C264.659 168.555 264.409 168.639 264.104 168.639H259.648C259.038 168.639 258.58 168.41 258.274 167.953L248.114 154.592V167.736C248.114 167.977 248.017 168.194 247.823 168.386C247.629 168.555 247.379 168.639 247.073 168.639H242.077Z" fill="#1A1A1A"/>
<path d="M272.004 168.639C271.727 168.639 271.477 168.555 271.255 168.386C271.061 168.194 270.964 167.977 270.964 167.736V144.264C270.964 143.999 271.061 143.782 271.255 143.614C271.477 143.445 271.727 143.361 272.004 143.361H291.45C291.755 143.361 292.005 143.445 292.199 143.614C292.393 143.782 292.491 143.999 292.491 144.264V147.658C292.491 147.899 292.393 148.116 292.199 148.308C292.005 148.477 291.755 148.561 291.45 148.561H278.167V153.436H290.534C290.839 153.436 291.089 153.532 291.283 153.725C291.477 153.894 291.575 154.11 291.575 154.375V157.517C291.575 157.757 291.477 157.974 291.283 158.167C291.089 158.335 290.839 158.419 290.534 158.419H278.167V163.439H291.783C292.088 163.439 292.338 163.523 292.532 163.692C292.727 163.86 292.824 164.077 292.824 164.342V167.736C292.824 167.977 292.727 168.194 292.532 168.386C292.338 168.555 292.088 168.639 291.783 168.639H272.004Z" fill="#1A1A1A"/>
<path d="M305.01 168.639C304.733 168.639 304.483 168.555 304.261 168.386C304.066 168.194 303.969 167.977 303.969 167.736V149.031H296.558C296.28 149.031 296.03 148.946 295.808 148.778C295.614 148.585 295.517 148.369 295.517 148.128V144.264C295.517 143.999 295.614 143.782 295.808 143.614C296.03 143.445 296.28 143.361 296.558 143.361H318.959C319.264 143.361 319.514 143.445 319.709 143.614C319.903 143.782 320 143.999 320 144.264V148.128C320 148.393 319.903 148.609 319.709 148.778C319.514 148.946 319.264 149.031 318.959 149.031H311.547V167.736C311.547 167.977 311.45 168.194 311.256 168.386C311.062 168.555 310.812 168.639 310.506 168.639H305.01Z" fill="#1A1A1A"/>
</g>
<defs>
<filter id="filter0_d" x="6.08" y="34.2" width="314.126" height="108.8" filterUnits="userSpaceOnUse" color-interpolation-filters="sRGB">
<feFlood flood-opacity="0" result="BackgroundImageFix"/>
<feColorMatrix in="SourceAlpha" type="matrix" values="0 0 0 0 0 0 0 0 0 0 0 0 0 0 0 0 0 0 127 0"/>
<feOffset dy="4"/>
<feGaussianBlur stdDeviation="2"/>
<feColorMatrix type="matrix" values="0 0 0 0 0 0 0 0 0 0 0 0 0 0 0 0 0 0 0.25 0"/>
<feBlend mode="normal" in2="BackgroundImageFix" result="effect1_dropShadow"/>
<feBlend mode="normal" in="SourceGraphic" in2="effect1_dropShadow" result="shape"/>
</filter>
<filter id="filter1_d" x="9" y="143" width="315" height="34" filterUnits="userSpaceOnUse" color-interpolation-filters="sRGB">
<feFlood flood-opacity="0" result="BackgroundImageFix"/>
<feColorMatrix in="SourceAlpha" type="matrix" values="0 0 0 0 0 0 0 0 0 0 0 0 0 0 0 0 0 0 127 0"/>
<feOffset dy="4"/>
<feGaussianBlur stdDeviation="2"/>
<feColorMatrix type="matrix" values="0 0 0 0 0 0 0 0 0 0 0 0 0 0 0 0 0 0 0.25 0"/>
<feBlend mode="normal" in2="BackgroundImageFix" result="effect1_dropShadow"/>
<feBlend mode="normal" in="SourceGraphic" in2="effect1_dropShadow" result="shape"/>
</filter>
</defs>
</svg>
